<?xml version="1.0" encoding="UTF-8" standalone="no"?>
<!-- Created with Inkscape (http://www.inkscape.org/) -->

<svg
   version="1.1"
   id="svg1"
   width="3440"
   height="1440"
   viewBox="0 0 3440 1440"
   xmlns="http://www.w3.org/2000/svg"
   xmlns:svg="http://www.w3.org/2000/svg">
  <defs
     id="defs1" />
  <g
     id="g1">
    <rect
       style="fill:{{ colors.background_alt1 }};fill-opacity:1;stroke:{{ colors.background_alt1 }};stroke-width:0.547534"
       id="rect1"
       width="3515.0474"
       height="1471.176"
       x="-73.65258"
       y="-0.104197" />
    <path
       style="fill:{{ theme.primary }};fill-opacity:1;stroke-width:0.749011"
       d="m 1715.414,1207.2674 c -1.427,-2.2221 -5.5832,-8.3692 -9.236,-13.66 -3.6528,-5.2909 -7.1868,-10.4856 -7.8534,-11.5437 -0.6665,-1.0582 -3.5131,-5.2918 -6.3259,-9.4079 -2.8127,-4.1161 -7.5744,-11.1442 -10.5815,-15.6178 -3.0071,-4.4737 -8.1144,-12.0147 -11.3496,-16.758 -6.2174,-9.1153 -17.4268,-25.6822 -19.268,-28.4771 -0.6014,-0.9129 -9.4587,-14.0388 -19.6828,-29.1687 -10.2241,-15.1298 -21.4583,-31.7606 -24.9649,-36.9574 -7.7881,-11.5419 -14.0827,-20.8495 -20.9631,-30.9969 -12.1315,-17.89177 -25.2239,-37.28397 -28.317,-41.94217 -1.8268,-2.7512 -5.6338,-8.37 -8.4599,-12.4861 -2.8262,-4.1162 -7.5989,-11.1355 -10.606,-15.5985 -3.0071,-4.463 -7.9277,-11.7378 -10.9348,-16.1663 -3.0071,-4.4284 -7.8622,-11.6078 -10.7891,-15.9543 -9.529,-14.1507 -22.2657,-33.0115 -31.8409,-47.1513 -5.1593,-7.6188 -10.3093,-15.23767 -11.4443,-16.93074 -1.1351,-1.69308 -4.5171,-6.71459 -7.5156,-11.15892 -2.9985,-4.44433 -7.0158,-10.43028 -8.9273,-13.30205 -1.9115,-2.87184 -7.1835,-10.66385 -11.7157,-17.31557 -4.5321,-6.65179 -10.7084,-15.73038 -13.7251,-20.17471 -3.0167,-4.44432 -7.6075,-11.19739 -10.2016,-15.00682 -2.5942,-3.80942 -5.2686,-7.792 -5.9433,-8.85018 -0.6746,-1.05817 -2.9013,-4.34813 -4.9481,-7.31101 -2.047,-2.96289 -4.8693,-7.11862 -6.2718,-9.23497 -1.4026,-2.11635 -5.5035,-8.17679 -9.1132,-13.46766 -3.6096,-5.29087 -6.9319,-10.35102 -7.3828,-11.24481 -0.7184,-1.4238 -0.1422,-2.61511 4.6526,-9.61975 3.0098,-4.39708 6.0249,-8.86049 6.7,-9.91867 0.6752,-1.05817 3.3717,-5.04075 5.9924,-8.85018 2.6206,-3.80942 5.2516,-7.68657 5.8467,-8.61591 0.5951,-0.92935 5.0565,-7.50926 9.9143,-14.62203 4.8578,-7.11278 9.864,-14.49075 11.125,-16.39546 1.2609,-1.90471 3.5192,-5.26501 5.0184,-7.46739 29.4559,-43.26989 34.6285,-50.8943 37.7467,-55.63822 0.9737,-1.48144 3.0057,-4.47762 4.5156,-6.65817 1.5098,-2.18054 5.6975,-8.33042 9.306,-13.66637 3.6085,-5.33597 7.815,-11.51704 9.3477,-13.73572 1.5327,-2.2187 3.5827,-5.24607 4.5556,-6.72752 0.9729,-1.48144 2.9993,-4.47496 4.5032,-6.65227 3.4875,-5.04918 30.8053,-45.25149 32.2576,-47.47185 0.6009,-0.91876 5.3347,-7.90408 10.5196,-15.52293 13.2221,-19.42908 15.6979,-23.08773 18.948,-28.00098 1.5722,-2.37677 4.1936,-6.22612 5.8254,-8.5541 1.6317,-2.32798 3.6489,-5.27162 4.4828,-6.54143 0.8339,-1.26981 6.8173,-10.10075 13.2966,-19.62431 6.4792,-9.52356 12.1968,-17.95064 12.7058,-18.72686 0.5089,-0.77621 3.3857,-5.00783 6.3928,-9.40361 3.0071,-4.39578 7.4357,-10.9496 9.8413,-14.56405 2.4057,-3.61446 8.1465,-12.09208 12.7574,-18.83915 8.9258,-13.06106 14.7767,-21.6949 19.0111,-28.0531 1.4348,-2.15451 7.802,-11.53613 14.1493,-20.84805 6.3473,-9.31193 12.583,-18.48918 13.8568,-20.39389 1.2739,-1.90471 6.5524,-9.69838 11.7299,-17.31925 5.1775,-7.62088 9.9837,-14.72026 10.6806,-15.7764 0.6969,-1.05615 2.5011,-3.71205 4.0094,-5.90201 1.5084,-2.18995 5.0093,-7.31276 7.7799,-11.38401 2.7705,-4.07126 5.4496,-7.30099 5.9535,-7.17718 0.5039,0.1238 2.0095,1.84123 3.346,3.81651 4.5689,6.75294 14.0912,20.85333 16.2807,24.10819 1.2028,1.78807 3.93,5.8107 6.0604,8.93918 2.1304,3.12848 13.3452,19.71376 24.9217,36.85616 11.5766,17.14241 22.7914,33.73414 24.9218,36.87051 2.1304,3.13637 5.0528,7.46526 6.4941,9.61975 2.1023,3.14229 20.7593,30.64578 26.4104,38.9332 2.4955,3.65984 12.7682,18.87087 15.5553,23.03339 1.5389,2.29826 3.9462,5.84337 5.3495,7.87801 1.4033,2.03464 3.6387,5.34891 4.9675,7.36504 1.3288,2.01614 5.1246,7.64828 8.4351,12.51588 3.3105,4.8676 7.308,10.79633 8.8833,13.17497 2.9201,4.40894 10.4014,15.50016 13.058,19.35868 0.8086,1.17437 4.2586,6.31746 7.6666,11.42909 3.408,5.11162 7.3608,10.90385 8.784,12.87161 1.4231,1.96775 4.4032,6.34822 6.6225,9.73438 2.2193,3.38615 11.6915,17.41176 21.0495,31.16801 9.3581,13.75626 17.7016,26.05031 18.5413,27.32012 0.8397,1.2698 3.4889,5.20738 5.887,8.75016 2.3983,3.54279 6.0006,8.92215 8.0054,11.95415 2.0047,3.03199 4.9858,7.40589 6.6247,9.71976 3.0466,4.30118 35.214,51.84679 39.4678,58.33597 3.2167,4.90723 9.4353,14.1452 17.6942,26.28595 9.2585,13.61019 11.4277,16.83019 13.4835,20.01541 0.9561,1.48144 4.5463,6.77439 7.9783,11.76204 3.4319,4.98773 6.2399,9.25859 6.2399,9.49085 0,0.23226 -4.0141,6.36759 -8.9202,13.63405 -4.9061,7.26653 -9.6096,14.25078 -10.4523,15.52059 -0.8427,1.26981 -9.1826,13.56386 -18.533,27.32012 -27.8746,41.00849 -29.4801,43.37633 -30.6197,45.1603 -0.6014,0.94142 -6.3422,9.40158 -12.7574,18.80039 -6.4151,9.39881 -12.648,18.55884 -13.8508,20.35564 -7.2068,10.7654 -14.9652,22.2119 -18.2248,26.8881 -2.0652,2.9629 -5.3396,7.8112 -7.2763,10.7741 -1.9367,2.9629 -4.1535,6.2528 -4.926,7.311 -1.4486,1.9843 -8.4923,12.3544 -18.0508,26.5756 -3.0071,4.4739 -6.4027,9.4153 -7.5459,10.9809 -1.1431,1.5656 -4.5876,6.6072 -7.6544,11.2035 -3.0668,4.5964 -6.2321,9.3137 -7.0339,10.4829 -3.8045,5.5472 -7.8955,11.5949 -10.7333,15.8671 -1.7146,2.5813 -4.5938,6.852 -6.398,9.4904 -1.8043,2.6383 -4.8519,7.1063 -6.7725,9.92867 -1.9207,2.8224 -4.3189,6.3437 -5.3295,7.8251 -1.0107,1.4815 -3.9472,5.8104 -6.5257,9.6198 -2.5785,3.8094 -8.5453,12.5899 -13.2597,19.5122 -4.7144,6.9224 -9.5558,14.0594 -10.7586,15.8602 -2.313,3.4627 -6.1656,9.1382 -16.6166,24.4795 -3.5258,5.1757 -7.2324,10.6224 -8.2367,12.1039 -1.0044,1.4814 -3.7225,5.464 -6.0401,8.8502 -2.3177,3.3861 -5.3651,7.8882 -6.7721,10.0045 -1.4069,2.1164 -7.0145,10.4278 -12.4613,18.4699 -5.4469,8.0422 -10.6027,15.661 -11.4575,16.9308 -0.8549,1.2698 -4.0785,6.025 -7.1635,10.5671 -3.0851,4.5419 -8.1341,11.9876 -11.22,16.5459 -3.0858,4.5583 -9.378,13.8287 -13.9827,20.601 -4.6046,6.7723 -9.4609,13.9505 -10.7917,15.9515 -1.3307,2.0011 -2.9617,3.646 -3.6244,3.6555 -0.6627,0.01 -2.3724,-1.8008 -3.7994,-4.023 z m 8.6492,-6.709 c 3.8134,-5.7289 9.2793,-13.7793 22.4664,-33.0888 4.3376,-6.3515 7.6984,-11.8695 7.4685,-12.2623 -0.23,-0.3927 -3.1376,-1.6283 -6.4616,-2.7456 l -6.0435,-2.0315 -10.1015,3.5996 c -5.5558,1.9799 -10.8064,3.5997 -11.6678,3.5997 -0.8616,0 -6.1606,-1.6356 -11.7757,-3.6346 l -10.2094,-3.6346 -6.4914,2.2921 c -3.5704,1.2608 -6.5892,2.6015 -6.7086,2.9796 -0.1193,0.378 2.328,4.3924 5.4385,8.9207 3.1105,4.5284 8.9359,13.1062 12.9454,19.0619 4.0094,5.9556 7.7819,11.4891 8.3834,12.2967 0.6014,0.8075 2.5662,3.7098 4.3663,6.4495 2.0201,3.0746 3.555,4.731 4.0095,4.3274 0.4051,-0.3597 2.3768,-3.1181 4.3815,-6.1298 z m 6.751,-49.6113 10.396,-3.6516 7.7068,2.4676 c 4.2388,1.3571 7.9591,2.1672 8.2675,1.8001 0.5972,-0.711 7.7216,-11.0822 9.5358,-13.8814 1.9362,-2.9878 10.4886,-15.6522 13.3232,-19.7293 1.5202,-2.1865 2.4409,-4.0892 2.0462,-4.2281 -0.3948,-0.1389 -4.7213,1.1458 -9.6143,2.8548 l -8.8965,3.1073 -11.0099,-3.8242 -11.01,-3.8242 -10.8421,3.8294 -10.8421,3.8293 -10.9213,-3.8503 -10.9212,-3.8504 -11.1366,3.8555 -11.1366,3.8554 -9.7461,-3.4504 c -5.3603,-1.8976 -10.0146,-3.4514 -10.343,-3.4527 -0.5971,0 3.3351,6.1191 12.9654,20.1839 2.8201,4.1187 6.992,10.2274 9.271,13.575 l 4.1436,6.0867 7.5203,-2.6075 c 4.1361,-1.4342 7.8655,-2.608 8.2875,-2.6085 0.422,-5e-4 5.5067,1.6798 11.2994,3.7341 5.7926,2.0543 10.6961,3.6668 10.8966,3.5832 0.2004,-0.084 5.0427,-1.7953 10.7604,-3.8037 z m -43.5128,-38.4102 10.6227,-3.7064 10.8826,3.8474 10.8826,3.8473 11.0163,-3.8375 11.0165,-3.8375 10.8533,3.8258 10.8533,3.8258 11.5829,-4.0444 11.5829,-4.0445 3.7259,-5.5216 c 2.0493,-3.0369 6.2615,-9.2137 9.3606,-13.7263 3.0991,-4.5125 5.5032,-8.3434 5.3424,-8.5132 -0.1608,-0.1698 -4.6377,-1.829 -9.9486,-3.6872 l -9.6563,-3.3784 -10.8709,3.9045 -10.871,3.9045 -11.0588,-3.8625 -11.0588,-3.8625 -10.8718,3.8469 -10.8718,3.8469 -10.998,-3.8807 -10.9979,-3.8806 -10.9232,3.8594 -10.9231,3.8594 -11.034,-3.8253 -11.0338,-3.8254 -10.2117,3.5965 -10.2115,3.5965 1.1742,1.924 c 0.6458,1.0581 1.3728,2.0971 1.6155,2.3087 0.2427,0.2116 1.6003,2.1772 3.0171,4.368 7.2307,11.1816 13.3438,19.4947 14.3704,19.5425 0.6323,0.029 5.7423,1.7175 11.3555,3.7514 5.6132,2.0338 10.5339,3.65 10.9349,3.5914 0.4009,-0.059 5.5092,-1.7744 11.3516,-3.8129 z m -44.3872,-38.2365 11.0175,-3.8697 5.9061,2.0258 c 3.2483,1.1143 6.5622,2.3087 7.3641,2.6542 7.5208,3.241 7.9456,3.2423 17.0351,0.051 14.7955,-5.1953 12.7031,-5.1245 24.8753,-0.8411 l 10.7353,3.7776 10.8557,-3.8318 10.8557,-3.8319 10.996,3.8395 10.9961,3.8395 11.0053,-3.8307 11.0053,-3.8308 10.8007,3.7367 10.8008,3.7367 4.0516,-5.8415 c 2.2284,-3.213 6.0021,-8.7339 8.3859,-12.2689 10.7274,-15.9079 15.1083,-22.3766 23.2881,-34.3872 4.8113,-7.0647 10.5521,-15.5574 12.7573,-18.8728 2.2052,-3.3154 8.4381,-12.48837 13.8509,-20.38437 5.4127,-7.8959 10.3191,-15.1007 10.903,-16.0106 0.5838,-0.91 2.06,-3.0228 3.2804,-4.6952 1.2204,-1.6724 2.5469,-3.6228 2.9479,-4.3341 0.4009,-0.7112 2.2052,-3.4651 4.0094,-6.1196 1.8043,-2.6545 4.2646,-6.2829 5.4674,-8.0631 3.6191,-5.3562 47.1725,-69.4 50.1296,-73.7138 1.5099,-2.2025 3.5419,-5.2166 4.5156,-6.6981 2.7274,-4.1493 6.0291,-9.0348 12.7865,-18.9199 3.4081,-4.98542 7.4858,-10.99284 9.0618,-13.34976 5.4729,-8.18565 23.2332,-34.39764 31.0328,-45.80082 3.007,-4.39639 5.8876,-8.62854 6.4011,-9.40482 0.5135,-0.7762 6.355,-9.37642 12.981,-19.11161 6.626,-9.7352 12.5961,-18.56613 13.2668,-19.62431 0.6707,-1.05817 3.459,-5.15003 6.1962,-9.09298 2.7372,-3.94294 5.1573,-7.66579 5.378,-8.27299 0.342,-0.94066 -2.2788,-1.10373 -17.7192,-1.10235 h -18.1205 l -3.8707,5.57785 c -2.1289,3.06778 -9.4471,13.88931 -16.2627,24.04778 -6.8156,10.15846 -13.9673,20.72096 -15.8927,23.47221 -1.9253,2.75125 -6.7448,9.81269 -10.7099,15.69205 -3.9652,5.87937 -8.2938,12.28613 -9.6192,14.23725 -1.3254,1.95111 -3.2083,4.75954 -4.1842,6.24099 -2.5657,3.89484 -7.8238,11.64152 -14.9112,21.96868 -3.4081,4.96579 -6.6885,9.82031 -7.29,10.78775 -0.6014,0.96736 -7.4903,11.15888 -15.3088,22.64758 -15.8527,23.2948 -24.1926,35.6041 -26.0774,38.4891 -1.6949,2.5944 -9.3563,13.8794 -12.7355,18.7592 -1.5004,2.1665 -3.9607,5.8159 -5.4675,8.1096 -1.5067,2.2937 -3.3956,5.1312 -4.1975,6.3055 -4.4495,6.5156 -21.3445,31.4263 -22.6461,33.3901 -2.2734,3.4303 -35.1972,51.99877 -40.7402,60.09917 -2.6338,3.849 -5.7627,8.5505 -6.9532,10.4478 -2.3016,3.6683 -5.1111,6.7277 -5.1111,5.5658 0,-0.5864 3.1571,-5.5137 10.0287,-15.6514 0.6989,-1.031 2.0088,-2.8126 2.9109,-3.959 0.9021,-1.1463 1.6402,-2.3223 1.6402,-2.6133 0,-0.2909 1.0846,-1.9725 2.4103,-3.7368 1.3256,-1.7643 2.8838,-3.958 3.4627,-4.875 0.5788,-0.9169 4.1689,-6.2391 7.9779,-11.8272 3.809,-5.58797 8.7296,-12.87137 10.9348,-16.18517 5.5965,-8.4101 23.0568,-34.2501 25.9663,-38.4283 1.3264,-1.9047 6.4958,-9.5236 11.4876,-16.9308 4.9917,-7.4072 10.0253,-14.8529 11.1858,-16.546 1.1604,-1.6931 3.1772,-4.6367 4.4816,-6.5414 10.023,-14.6352 29.0951,-42.7688 29.9837,-44.2297 0.6015,-0.9886 3.0618,-4.6854 5.4675,-8.215 2.4057,-3.5297 4.866,-7.16887 5.4674,-8.08714 0.6014,-0.91826 3.0618,-4.51628 5.4675,-7.99556 4.2798,-6.18981 6.3406,-9.22088 10.3881,-15.27933 1.1026,-1.65036 6.4333,-9.5234 11.8461,-17.49564 5.4127,-7.97217 10.3334,-15.26094 10.9349,-16.19721 1.3202,-2.05532 11.1882,-16.64865 19.268,-28.4945 3.2352,-4.74323 8.3425,-12.28196 11.3496,-16.75284 3.0071,-4.47088 8.0098,-11.83323 11.1171,-16.36075 3.1073,-4.52752 5.6497,-8.50956 5.6497,-8.84895 0,-0.33938 -8.2483,-0.52454 -18.3296,-0.41149 l -18.3297,0.20563 -4.9942,7.31102 c -2.7468,4.02106 -12.6026,18.56613 -21.9016,32.32238 -9.2992,13.75626 -19.2243,28.40938 -22.056,32.5625 -2.8316,4.15304 -5.8044,8.53488 -6.6063,9.73735 -5.1555,7.7309 -11.3537,16.85243 -13.8508,20.38358 -1.6038,2.26787 -4.1441,5.97456 -5.6452,8.23705 -1.5011,2.26249 -6.8324,10.17409 -11.8475,17.5813 -5.0151,7.4072 -14.0339,20.7402 -20.0417,29.6289 -6.0079,8.8886 -13.7984,20.3896 -17.3122,25.5577 -6.8487,10.0731 -14.9503,22.0579 -17.3236,25.6268 -0.8019,1.206 -4.2464,6.2562 -7.6544,11.2227 -8.2368,12.0036 -10.5526,15.4141 -13.3356,19.639 -1.2858,1.9519 -3.7352,5.5881 -5.4433,8.0806 -1.708,2.4923 -5.4805,8.0619 -8.3834,12.3767 -9.9418,14.778 -25.6888,37.95207 -29.5778,43.52847 -2.1386,3.0664 -6.3313,9.2982 -9.317,13.8483 -4.6208,7.0419 -6.842,9.6011 -6.842,7.8829 0,-0.2145 5.3307,-8.2262 11.8461,-17.8036 6.5154,-9.5774 13.6504,-20.1275 15.8556,-23.4447 2.2052,-3.3172 8.438,-12.52317 13.8508,-20.45777 5.4128,-7.9346 10.3334,-15.2055 10.9349,-16.1576 0.6014,-0.952 8.8025,-13.0589 18.2247,-26.9042 9.4223,-13.8454 18.7537,-27.6229 20.7366,-30.6167 1.983,-2.9938 5.4274,-8.0806 7.6544,-11.3039 2.227,-3.2233 7.0016,-10.2464 10.6101,-15.607 3.6085,-5.3605 9.0212,-13.3612 12.0283,-17.7793 8.3163,-12.2185 13.2597,-19.50537 15.6733,-23.10362 1.2029,-1.7932 3.6867,-5.4671 5.5196,-8.16433 10.6173,-15.6241 36.9295,-54.42405 37.8554,-55.82176 3.9308,-5.93362 11.083,-16.47834 13.9111,-20.50917 1.8373,-2.61889 4.7138,-6.8395 6.3922,-9.37911 1.6784,-2.53962 4.3608,-6.5222 5.961,-8.85018 5.359,-7.79685 10.5376,-15.54138 11.8927,-17.78532 l 1.3428,-2.22378 h -232.5464 -232.5463 l -3.5876,5.19467 c -1.9731,2.85707 -6.1277,9.00409 -9.2325,13.66006 -3.1047,4.65596 -6.1292,9.15801 -6.7211,10.00455 -2.5312,3.6201 -21.6033,31.72319 -22.719,33.47675 -0.6732,1.05818 -2.885,4.34813 -4.915,7.31102 -2.03,2.96289 -5.2092,7.6621 -7.0649,10.44275 l -3.374,5.05568 9.0489,13.3433 c 4.9768,7.3388 9.185,13.48713 9.3515,13.66298 0.2608,0.2752 5.8773,-7.44708 9.1982,-12.64667 1.402,-2.19531 19.8237,-29.46071 23.2931,-34.47552 7.9292,-11.46114 16.2259,-23.70771 19.501,-28.78478 1.4752,-2.28704 2.8051,-3.76926 2.9552,-3.29381 0.3454,1.09404 -1.6141,4.14604 -19.0389,29.65248 -4.8737,7.13409 -9.8193,14.40786 -10.9903,16.16397 -4.2326,6.34773 -6.0329,9.0211 -14.7981,21.97306 l -8.9084,13.16353 3.8054,5.79702 c 11.3839,17.34213 15.8337,23.10383 15.8337,20.50163 0,-0.3469 1.2992,-2.5113 2.8871,-4.8099 1.5879,-2.2986 4.1303,-5.99817 5.6497,-8.22126 1.5195,-2.22316 3.7742,-5.51312 5.0105,-7.31102 4.4791,-6.51373 34.962,-51.73244 36.1609,-53.64146 2.3579,-3.75455 4.1409,-5.7804 4.6316,-5.26232 0.2717,0.2869 -1.5921,3.55577 -4.1419,7.26415 -2.5498,3.70838 -5.128,7.51119 -5.7294,8.45077 -0.6014,0.9395 -3.0618,4.58932 -5.4674,8.11061 -2.4057,3.52129 -4.866,7.15333 -5.4675,8.07113 -0.6014,0.9178 -4.9456,7.32695 -9.6538,14.24255 -4.7082,6.91561 -10.6672,15.69067 -13.2421,19.5001 -2.575,3.80942 -6.0218,8.87785 -7.6597,11.26295 -1.6379,2.3853 -2.978,4.5824 -2.978,4.8825 0,0.3002 2.0503,3.4939 4.5562,7.0973 2.5059,3.6033 5.0483,7.3331 5.6497,8.2884 0.6014,0.9554 2.4764,3.7752 4.1666,6.2664 11.8292,17.4346 16.0276,23.678 19.2181,28.5788 1.9978,3.0687 3.778,5.5794 3.956,5.5794 0.3175,0 5.9003,-7.9526 11.6603,-16.6102 1.6038,-2.4106 4.0642,-6.0505 5.4675,-8.0888 2.716,-3.9451 16.5756,-24.3854 19.7665,-29.1519 1.0484,-1.5662 10.6972,-15.80396 21.4418,-31.63962 10.7446,-15.83574 20.5766,-30.35057 21.8489,-32.25528 3.6151,-5.41192 18.1916,-26.93933 25.273,-37.32466 2.0202,-2.96289 4.1239,-6.05883 4.6746,-6.87982 0.5509,-0.82099 1.2025,-1.28058 1.4481,-1.02124 0.4868,0.51385 -2.998,6.14026 -10.0854,16.28333 -2.4987,3.57586 -9.1356,13.3062 -14.7488,21.62291 -5.6133,8.3167 -12.2362,18.1277 -14.7177,21.80214 -2.4814,3.67444 -5.6563,8.41236 -7.0554,10.52871 -1.3991,2.11635 -7.5032,11.12044 -13.5647,20.0091 -6.0614,8.88863 -12.3738,18.23903 -14.0275,20.77863 -1.6537,2.5397 -4.7026,7.0417 -6.7753,10.0046 -2.0727,2.9629 -9.5575,13.9772 -16.633,24.4763 l -12.8643,19.0891 1.2496,2.0743 c 0.6872,1.1409 1.4428,2.2474 1.679,2.4591 0.2362,0.2116 1.5409,2.1163 2.8993,4.2327 1.3583,2.1163 4.8172,7.2282 7.6864,11.3596 l 5.2167,7.5118 2.0534,-3.2791 c 1.7759,-2.8358 34.8205,-51.7121 43.8412,-64.8455 1.7444,-2.5396 3.9689,-5.8296 4.9436,-7.311 2.6028,-3.9562 5.4945,-8.2405 16.4331,-24.34768 5.4128,-7.97032 10.3335,-15.23701 10.9349,-16.14827 0.6014,-0.91126 2.4807,-3.68729 4.1761,-6.16896 3.4854,-5.10178 9.8863,-14.56916 11.2927,-16.70259 0.5134,-0.77897 3.2325,-4.76155 6.0425,-8.85018 2.8099,-4.08863 6.3909,-9.42521 7.9578,-11.85901 2.5725,-3.99581 4.076,-5.42154 4.0579,-3.8479 -0.01,0.31745 -2.15,3.69399 -4.7694,7.50341 -2.6196,3.80943 -6.1271,9.0041 -7.7946,11.54371 -1.6675,2.53962 -3.3036,4.9638 -3.6358,5.38707 -0.3322,0.42327 -1.8244,2.56686 -3.3159,4.76347 -1.4916,2.19661 -6.1564,9.06266 -10.3663,15.25786 -4.21,6.1952 -8.1465,12.05764 -8.7479,13.02761 -0.6014,0.96991 -2.4057,3.68999 -4.0095,6.0446 -1.6038,2.35461 -7.9136,11.66426 -14.0218,20.68806 -6.1083,9.0238 -14.0437,20.7358 -17.6342,26.0266 -3.5905,5.2909 -7.7781,11.4862 -9.3058,13.7673 -1.5277,2.2811 -3.9258,5.8177 -5.3291,7.8592 -4.0925,5.9536 -17.6766,25.9716 -19.865,29.2737 -1.1026,1.6637 -2.0048,3.2215 -2.0048,3.4616 0,0.4116 4.3578,6.9473 14.0854,21.1249 l 4.244,6.1854 3.0361,-4.4734 c 1.6699,-2.4603 11.4607,-16.9405 21.7571,-32.1782 10.2965,-15.2377 19.9204,-29.4365 21.3864,-31.5528 3.2167,-4.6435 21.4487,-31.5459 25.0346,-36.9399 1.4069,-2.1163 4.3884,-6.5243 6.6254,-9.7957 2.2371,-3.2712 6.5277,-9.5979 9.5348,-14.05919 3.0071,-4.46134 7.9278,-11.73526 10.9348,-16.16428 3.0071,-4.42901 7.2073,-10.65615 9.3338,-13.83806 2.1265,-3.18183 4.1961,-5.78524 4.5992,-5.78524 0.8299,0 0.5931,0.47637 -2.7735,5.57946 -1.3264,2.01053 -3.6103,5.47364 -5.0755,7.6958 -1.4651,2.22217 -3.3514,4.96519 -4.1917,6.09555 -0.8402,1.13043 -3.9881,5.73422 -6.9952,10.2308 -3.0071,4.49651 -8.1144,12.05626 -11.3496,16.79946 -5.7553,8.4379 -16.3272,24.0891 -20.0432,29.673 -1.0278,1.5444 -5.7609,8.5221 -10.5181,15.506 -12.7505,18.719 -14.9116,21.9121 -19.3244,28.5519 -7.024,10.5692 -18.4256,27.3724 -23.5694,34.7357 -2.7391,3.921 -5.4554,8.0846 -6.0363,9.2523 -1.288,2.5895 -1.1998,2.7862 5.819,12.9842 2.8586,4.1534 6.4817,9.4612 8.0512,11.79517 2.2004,3.2721 3.0716,4.0527 3.8056,3.4095 0.5236,-0.4587 3.0119,-3.9359 5.5297,-7.72707 2.5178,-3.7913 7.0381,-10.4993 10.0452,-14.9068 7.0177,-10.286 12.8013,-18.8256 16.0986,-23.7701 1.4368,-2.1544 6.8622,-10.1509 12.0566,-17.7697 5.1945,-7.6188 10.9374,-16.1035 12.7622,-18.8547 1.8248,-2.7513 10.9673,-16.2574 20.3167,-30.0137 9.3494,-13.7562 18.1511,-26.7429 19.5593,-28.8592 1.4081,-2.1164 4.3906,-6.5232 6.6277,-9.7929 2.237,-3.26977 4.9907,-7.33893 6.1193,-9.04255 2.2847,-3.44887 4.3181,-4.3145 2.305,-0.98129 -0.7031,1.16399 -3.3068,5.05999 -5.7862,8.65778 -5.768,8.36976 -25.375,37.34436 -29.1884,43.13356 -1.6038,2.4347 -5.7044,8.479 -9.1124,13.4317 -3.4081,4.9528 -7.042,10.2686 -8.0755,11.813 -5.0378,7.5286 -19.951,29.6243 -23.9704,35.5151 -1.5884,2.328 -4.1311,6.0559 -5.6506,8.2842 -1.5194,2.2284 -3.5827,5.248 -4.585,6.7103 -1.0024,1.4622 -3.3957,5.0068 -5.3184,7.8769 -1.9227,2.8701 -6.9254,10.2911 -11.1171,16.4911 -4.1917,6.20007 -7.6162,11.74107 -7.6101,12.31327 0.01,0.5723 1.1635,2.7721 2.5719,4.8884 1.4084,2.1163 3.1207,4.7137 3.8051,5.7719 4.8868,7.5555 11.3053,16.1231 11.8248,15.7841 0.517,-0.3374 25.9417,-37.50097 36.0328,-52.66977 1.5685,-2.3578 4.685,-6.9634 6.9255,-10.2347 2.2404,-3.2712 6.5338,-9.5941 9.5409,-14.0508 3.0071,-4.4568 8.8169,-13.0354 12.9106,-19.0637 4.0937,-6.0283 9.8345,-14.5076 12.7574,-18.843 2.9228,-4.3353 7.7745,-11.4923 10.7816,-15.9042 3.0071,-4.412 5.9595,-8.777 6.5609,-9.7002 0.6014,-0.9231 4.456,-6.5756 8.5657,-12.5611 4.1096,-5.9855 7.4721,-11.1466 7.4721,-11.469 0,-0.3225 0.3281,-0.5863 0.729,-0.5863 0.9553,0 0.9316,1.3606 -0.044,2.5336 -0.4253,0.5113 -7.7798,11.3189 -16.3434,24.0169 -8.5636,12.6981 -16.7764,24.819 -18.2507,26.9354 -3.3397,4.7942 -21.3074,31.3508 -25.7738,38.0942 -1.8223,2.7513 -6.1154,9.0598 -9.5403,14.0191 -3.4249,4.9592 -7.3752,10.778 -8.7785,12.9308 -1.4033,2.1526 -3.3716,5.0888 -4.3739,6.5249 -3.3689,4.8263 -11.9891,17.51637 -16.7668,24.68297 -2.6062,3.9092 -6.3383,9.4715 -8.2935,12.3607 -3.2724,4.8355 -3.4752,5.3895 -2.5515,6.9704 0.552,0.9445 6.0883,9.1963 12.3029,18.3373 6.2147,9.1409 11.9555,17.6346 12.7574,18.8749 0.8019,1.2402 1.5515,2.2595 1.6657,2.2651 0.1143,0.01 5.1657,-1.7313 11.2252,-3.8598 z m -8.1524,-27.1431 c 0,-0.5497 2.3818,-4.4457 5.293,-8.6578 2.9112,-4.2122 5.7816,-8.41 6.3787,-9.3286 2.2928,-3.5274 15.8934,-23.6095 23.8864,-35.26967 3.5261,-5.144 21.5528,-31.7592 30.6268,-45.2186 2.9229,-4.3353 8.6637,-12.8022 12.7574,-18.8151 6.6158,-9.7175 12.2011,-17.9831 19.107,-28.276 1.2028,-1.7928 7.4357,-10.9674 13.8508,-20.388 6.4152,-9.4206 13.4681,-19.8446 15.6733,-23.1646 2.2052,-3.3199 7.1259,-10.57012 10.9349,-16.11149 3.809,-5.54136 7.4175,-10.89102 8.0189,-11.88809 1.1748,-1.94781 3.7345,-5.72199 8.3834,-12.36108 1.6038,-2.29035 3.6684,-5.30765 4.5879,-6.70513 0.9196,-1.39748 3.5716,-5.31134 5.8935,-8.69749 3.9341,-5.73753 13.658,-20.14254 18.6783,-27.66997 7.9316,-11.89271 14.577,-21.1984 15.138,-21.1984 1.1506,0 1.7522,-0.94159 -16.2315,25.40639 -4.6109,6.75538 -10.8438,15.92994 -13.8508,20.38781 -3.0071,4.45795 -7.9278,11.72587 -10.9349,16.15088 -3.0071,4.42509 -8.9119,13.12605 -13.1219,19.33541 -4.2099,6.20944 -10.4984,15.4825 -13.9744,20.60686 -3.476,5.1244 -8.6608,12.7802 -11.5217,17.0129 -2.861,4.2327 -10.4861,15.4878 -16.9448,25.0113 -6.4586,9.5236 -12.9195,19.0784 -14.3574,21.2328 -3.3458,5.0132 -9.1769,13.6217 -16.1008,23.7701 -3.0071,4.4075 -7.5997,11.191 -10.2059,15.0744 -2.6061,3.8833 -5.9676,8.8372 -7.4699,11.0087 -1.5023,2.1715 -3.3024,4.8139 -4.0004,5.8721 -0.6979,1.0582 -3.0773,4.5721 -5.2874,7.8089 -2.2102,3.2367 -4.5106,6.6466 -5.112,7.5774 -0.6014,0.9309 -3.0618,4.5761 -5.4674,8.1007 -2.4057,3.52457 -4.7907,7.04087 -5.3,7.81417 -0.5093,0.7733 -3.8942,5.7349 -7.5221,11.0257 -3.6279,5.2909 -7.1478,10.4873 -7.822,11.5477 -3.2901,5.1747 -13.4432,20.0051 -13.6957,20.0051 -0.1581,0 -0.2873,-0.4497 -0.2873,-0.9993 z m 38.8838,-0.079 c 0.2861,-0.8045 1.8439,-3.4018 3.4617,-5.7719 4.7281,-6.9265 13.7191,-20.1855 19.6187,-28.9315 3.0071,-4.4579 9.24,-13.63657 13.8509,-20.39707 4.6108,-6.7606 9.5315,-14.0406 10.9348,-16.1779 1.4033,-2.1372 3.8637,-5.7421 5.4675,-8.0109 1.6038,-2.2688 4.8842,-7.1307 7.2899,-10.8041 2.4057,-3.6735 4.7894,-7.2596 5.2971,-7.969 1.2946,-1.809 12.427,-18.1496 20.0867,-29.4843 3.5366,-5.2333 8.5549,-12.6319 11.1519,-16.4413 2.597,-3.8094 5.2753,-7.792 5.9516,-8.8502 0.6765,-1.0582 3.5312,-5.2916 6.3439,-9.4076 2.8128,-4.1159 7.7385,-11.3597 10.9461,-16.0972 3.2075,-4.7375 6.9801,-10.2828 8.3834,-12.3229 1.4033,-2.0401 3.6996,-5.45751 5.1029,-7.59418 1.4033,-2.13674 3.8637,-5.74376 5.4674,-8.01564 2.7133,-3.84375 8.3697,-12.2321 15.3089,-22.7034 2.8357,-4.27925 7.5986,-11.26604 11.2993,-16.57546 1.0024,-1.43811 4.4469,-6.60508 7.6544,-11.48214 3.2076,-4.87706 6.078,-8.8815 6.3787,-8.89866 1.284,-0.0731 0.2428,1.94173 -4.7384,9.1704 -5.6131,8.14547 -11.6254,16.99957 -15.9143,23.43627 -1.4355,2.15444 -7.9081,11.70924 -14.3834,21.23281 -6.4754,9.52356 -12.1898,17.9506 -12.6988,18.7268 -0.5089,0.7763 -3.3856,5.0212 -6.3927,9.4333 -10.7566,15.7824 -16.7895,24.6839 -22.385,33.029 -3.1247,4.6601 -6.2754,9.3353 -7.0018,10.3894 -1.9848,2.8802 -11.814,17.3723 -17.9976,26.5354 -3.0071,4.456 -8.3522,12.3411 -11.8781,17.5224 -3.5259,5.1813 -7.2331,10.6326 -8.2384,12.1141 -1.0052,1.4814 -4.3533,6.4099 -7.4401,10.952 -3.0869,4.5423 -8.0729,11.9128 -11.08,16.379 -3.0071,4.4662 -8.7479,12.93967 -12.7573,18.82987 -4.0095,5.8902 -11.3905,16.8145 -16.4023,24.276 -8.9504,13.3254 -11.7985,17.0318 -10.6876,13.9086 z m 38.3893,0.6897 c 0,-0.4918 4.7758,-7.7125 14.5043,-21.9296 4.1997,-6.1374 8.3137,-12.1979 9.1422,-13.4677 0.8286,-1.2698 5.9345,-8.8094 11.3464,-16.75467 10.0146,-14.7023 16.8487,-24.817 21.4378,-31.7289 2.3219,-3.497 28.2393,-41.7571 30.7576,-45.4052 4.6612,-6.7524 21.7856,-31.9501 22.7586,-33.4881 0.6733,-1.0643 5.6528,-8.4611 11.0656,-16.4373 5.4128,-7.9762 11.1246,-16.45571 12.693,-18.84348 1.5683,-2.38771 3.0445,-4.51444 3.2804,-4.72608 0.2359,-0.21163 0.757,-0.95643 1.1579,-1.65513 0.7053,-1.22902 4.3839,-6.67573 17.074,-25.28019 7.0856,-10.3878 6.6182,-9.80107 6.6182,-8.3087 0,0.65053 -1.6219,3.56531 -3.6042,6.47725 -1.9823,2.91202 -4.4283,6.50665 -5.4355,7.9881 -1.0072,1.48144 -4.716,6.91891 -8.2418,12.08326 -3.5259,5.16435 -9.2804,13.64897 -12.7878,18.85477 -3.5074,5.2057 -8.8345,13.1012 -11.8382,17.5455 -3.0037,4.4444 -7.515,11.1319 -10.0252,14.8613 -2.5103,3.7293 -5.3842,7.9418 -6.3866,9.3611 -1.0024,1.4193 -3.9548,5.764 -6.5609,9.6548 -2.6062,3.8908 -5.7226,8.5431 -6.9254,10.3384 -5.3308,7.9566 -21.8625,32.3192 -29.5242,43.5095 -7.5331,11.0024 -13.692,20.099 -20.0472,29.6091 -4.1777,6.2515 -10.2348,15.17087 -15.3371,22.58477 -2.8222,4.1007 -6.2531,9.1873 -7.6243,11.3036 -1.3711,2.1164 -2.762,4.1943 -3.0907,4.6175 -0.9054,1.1659 -8.6556,12.6435 -11.0434,16.3545 -1.8209,2.8299 -3.3635,4.1516 -3.3635,2.8816 z M 1506.4593,891.42723 c 0,-0.2775 0.9021,-1.7438 2.0047,-3.2586 1.1026,-1.5148 2.3328,-3.3423 2.7338,-4.0612 0.4009,-0.7188 3.8454,-5.859 7.6544,-11.4225 3.8089,-5.5636 8.7296,-12.823 10.9348,-16.1321 2.2052,-3.3092 6.7979,-10.09217 10.2059,-15.07328 3.408,-4.98111 7.1806,-10.52302 8.3834,-12.31537 7.8833,-11.74703 12.339,-18.15018 12.8717,-18.49772 1.5717,-1.02546 0.3229,1.87901 -2.4836,5.77647 -1.704,2.36647 -3.4262,4.88792 -3.8272,5.60324 -0.4009,0.71541 -6.4698,9.71165 -13.4863,19.99171 -7.0165,10.28006 -13.2494,19.45165 -13.8508,20.38135 -0.6015,0.9296 -3.0618,4.5714 -5.4675,8.0927 -2.4056,3.5213 -4.866,7.1493 -5.4674,8.0622 -7.6597,11.6266 -10.2059,14.8333 -10.2059,12.8531 z m -53.4519,-93.96146 c 2.7756,-4.12688 7.8186,-11.59127 11.2066,-16.58754 3.3882,-4.99627 6.6523,-9.84702 7.2537,-10.77944 0.6014,-0.9325 3.0618,-4.59086 5.4675,-8.12985 2.4056,-3.539 5.3581,-7.90313 6.5609,-9.6981 4.0186,-5.99711 10.1549,-15.01029 15.4886,-22.75035 l 5.2826,-7.66602 h -18.5385 -18.5386 l -5.1137,7.50341 c -2.8124,4.12688 -6.5247,9.5595 -8.2493,12.07257 -1.7247,2.51298 -4.6382,6.84188 -6.4746,9.61975 -1.8363,2.77781 -6.675,9.9476 -10.7526,15.93286 -4.0775,5.98519 -7.4138,11.10544 -7.4138,11.37825 0,0.27274 1.8863,3.2344 4.1917,6.58138 2.3055,3.34698 6.2745,9.22219 8.82,13.05594 2.5454,3.83382 4.8835,6.97055 5.1956,6.97055 0.3121,0 2.8384,-3.37654 5.6139,-7.50341 z m -6.2307,-47.95627 c 9.9196,-14.57539 18.057,-26.76039 18.0829,-27.07785 0.026,-0.31745 -8.2715,-0.57718 -18.4388,-0.57718 h -18.4861 l -2.7084,4.30626 c -2.4625,3.91532 -12.6253,18.85242 -14.0873,20.70511 -1.6717,2.11858 -1.493,2.91748 1.7567,7.85557 3.6003,5.47095 9.3204,13.79397 11.8693,17.27085 0.8221,1.12144 1.7016,2.60788 1.9543,3.3032 0.2528,0.69539 0.811,1.14059 1.2406,0.98945 0.4295,-0.15115 8.897,-12.20009 18.8168,-26.77541 z m -28.6089,-15.34174 8.0762,-11.9285 -17.2911,-0.38479 c -15.7199,-0.34985 -17.3134,-0.50715 -17.5361,-1.73156 -0.2316,-1.27327 2.833,-1.34676 56.1474,-1.34676 h 56.3924 l 7.9946,-11.22903 c 4.397,-6.17596 8.4865,-11.98861 9.0879,-12.91695 1.2099,-1.86762 11.4978,-16.46656 12.5107,-17.75346 0.3517,-0.44674 3.324,-4.62171 6.6051,-9.27768 3.2811,-4.65596 6.2356,-8.8117 6.5657,-9.23496 0.3301,-0.42327 3.8873,-5.44479 7.905,-11.15892 4.0176,-5.71414 7.8636,-10.45722 8.5467,-10.54026 0.8415,-0.10227 4.5785,4.61148 11.5923,14.62203 22.1399,31.59999 44.1265,62.49396 44.5788,62.63902 0.2608,0.0837 5.7228,-7.3214 12.1379,-16.45571 6.4151,-9.13431 18.0975,-25.69484 25.9609,-36.80127 7.8633,-11.10636 14.5376,-20.60445 14.8318,-21.1069 0.324,-0.55341 -1.0092,-2.64013 -3.3817,-5.29303 -10.7289,-11.99714 -15.8941,-22.13962 -19.6709,-38.62579 -1.422,-6.20707 -1.1805,-24.45659 0.4074,-30.78322 3.9638,-15.79341 10.0417,-27.34792 19.6546,-37.36498 8.9321,-9.3076 20.4381,-16.32075 32.3387,-19.71101 8.1169,-2.31238 23.295,-2.80437 31.5857,-1.02383 15.3973,3.30681 28.3546,10.86955 38.6043,22.53195 6.3668,7.24425 7.415,8.81263 11.4966,17.20059 5.7826,11.88382 7.3468,18.26467 7.959,32.46853 0.8786,20.38168 -6.1745,39.60975 -19.9945,54.50925 l -4.7492,5.12002 7.5194,10.65638 c 41.1767,58.35584 46.1275,65.11268 46.9091,64.0218 1.884,-2.6295 30.2027,-42.55489 41.8091,-58.94495 6.9688,-9.84102 13.0903,-17.89275 13.6033,-17.89275 0.5131,0 1.6137,0.95235 2.4456,2.11634 0.832,1.16399 9.7203,13.71778 19.7517,27.8973 10.0314,14.17953 20.7994,29.35727 23.9288,33.72834 3.1293,4.37106 6.1684,8.69995 6.7535,9.61975 0.585,0.91981 2.3378,3.31736 3.8951,5.32789 l 2.8313,3.65551 h 56.0645 c 39.0057,0 56.0644,-0.24819 56.0644,-0.81576 0,-0.44866 -1.0661,-2.3356 -2.3692,-4.19321 -1.3031,-1.85762 -4.7691,-6.94493 -7.7022,-11.30514 -2.933,-4.36022 -9.7918,-14.5076 -15.2417,-22.54972 -9.7276,-14.35445 -12.0954,-17.87743 -17.4572,-25.97334 -1.4717,-2.22217 -4.5061,-6.70867 -6.7432,-9.97007 -2.2371,-3.26141 -5.2155,-7.6875 -6.6188,-9.83578 -1.4033,-2.14837 -2.9031,-4.32851 -3.333,-4.8449 -0.4298,-0.51631 -2.1465,-3.01645 -3.8147,-5.55576 -1.6683,-2.53937 -5.1456,-7.73382 -7.7274,-11.54324 -2.5818,-3.80943 -7.098,-10.49393 -10.0361,-14.85444 -2.9381,-4.36051 -7.8023,-11.52026 -10.8094,-15.91054 -3.0071,-4.39028 -6.6834,-9.82668 -8.1697,-12.08089 -1.4863,-2.2542 -7.2824,-10.85162 -12.8803,-19.10538 -5.598,-8.25375 -12.5831,-18.55957 -15.5225,-22.90182 -6.1361,-9.06444 -17.2907,-25.46349 -20.0179,-29.42966 -1.0187,-1.48144 -6.2699,-9.27345 -11.6693,-17.31557 -5.3994,-8.04211 -10.2104,-15.15692 -10.691,-15.81069 -0.4806,-0.65377 -1.992,-2.90479 -3.3587,-5.00228 -1.3667,-2.09748 -3.6932,-5.54516 -5.17,-7.66151 -4.0044,-5.7386 -22.1222,-32.58765 -22.9628,-34.02906 -0.4009,-0.6875 -1.1221,-1.79684 -1.6025,-2.46519 -0.4805,-0.66836 -2.7492,-3.98569 -5.0415,-7.37185 -2.2924,-3.38615 -5.1085,-7.54189 -6.2579,-9.23496 -1.1496,-1.69308 -2.6508,-3.94411 -3.336,-5.00228 -0.6853,-1.05817 -3.545,-5.2837 -6.3549,-9.39006 -2.8098,-4.10636 -7.5692,-11.12566 -10.5763,-15.59845 -5.6844,-8.45514 -12.7796,-18.91788 -21.5052,-31.71227 -2.8066,-4.11535 -5.6547,-8.3655 -6.3291,-9.44478 -0.6745,-1.07928 -6.5793,-9.82903 -13.1218,-19.44387 -6.5427,-9.61486 -12.3122,-18.09949 -12.8212,-18.85473 -0.509,-0.75525 -5.3411,-7.95309 -10.738,-15.99521 -5.397,-8.04212 -10.0785,-14.96834 -10.4033,-15.39161 -0.3248,-0.42327 -3.0363,-4.40585 -6.0255,-8.85018 -2.9892,-4.44433 -6.1675,-9.11953 -7.0627,-10.38934 -0.8953,-1.26981 -2.0156,-3.08794 -2.4895,-4.0403 -1.2578,-2.52796 -2.1543,-2.14282 -5.0015,2.14898 -1.4033,2.11527 -5.0118,7.46659 -8.0189,11.89183 -3.0071,4.42523 -8.7479,12.90941 -12.7574,18.85371 -4.0094,5.9443 -7.7819,11.48191 -8.3834,12.3058 -0.6014,0.82389 -3.4916,5.05976 -6.4227,9.41305 -2.931,4.35328 -10.6097,15.70706 -17.0637,25.23062 -6.454,9.52357 -12.887,19.04713 -14.2956,21.16347 -2.7062,4.06583 -9.1694,13.57146 -13.6051,20.0091 -3.6142,5.24568 -21.8669,32.18284 -25.0304,36.93987 -1.4074,2.11635 -3.7606,5.57946 -5.2295,7.69581 -1.4688,2.11634 -3.8198,5.57946 -5.2243,7.6958 -1.4045,2.11635 -7.7493,11.46676 -14.0996,20.77868 -6.3502,9.31193 -12.3912,18.19437 -13.4245,19.73874 -6.9645,10.40951 -22.0647,32.72399 -28.8256,42.59729 -2.3679,3.45798 -4.2489,6.23305 -10.1716,15.00683 -1.8528,2.74489 -18.5668,27.26167 -23.3469,34.24634 -1.4484,2.11634 -6.9707,10.25684 -12.272,18.09 -5.3012,7.83315 -10.2369,15.10569 -10.9682,16.16119 -2.3647,3.41305 -14.3268,21.06612 -16.4234,24.23694 -4.4381,6.71152 -52.2027,77.0885 -53.6262,79.0133 -0.836,1.13044 -3.9803,5.72784 -6.9873,10.21649 -3.0071,4.48866 -7.7665,11.52894 -10.5765,15.64512 -10.4371,15.28879 -10.8891,16.11286 -9.7578,17.78985 0.5588,0.82838 4.7736,7.07668 9.3662,13.88516 6.5967,9.7796 8.5337,12.17546 9.2242,11.4095 0.4808,-0.53324 4.5083,-6.33735 8.9502,-12.89802 z m 107.6854,-199.00605 c -0.8784,-2.41643 1.4942,-3.64572 3.0983,-1.60532 0.5848,0.74396 0.5695,1.26295 -0.057,1.92395 -1.1987,1.26544 -2.516,1.12744 -3.0417,-0.31863 z m 376.7696,-9.62416 c -0.6426,-1.09777 1.4849,-3.34379 2.5248,-2.66532 0.4394,0.2867 0.7989,1.19345 0.7989,2.01501 0,1.6346 -2.4651,2.11692 -3.3237,0.65031 z m -357.527,-11.42444 c 0,-2.07224 1.3791,-2.7673 2.7077,-1.3647 1.3286,1.4026 0.6703,2.85844 -1.2927,2.85844 -0.9146,0 -1.415,-0.52819 -1.415,-1.49374 z m 336.3305,-8.12087 c -0.2525,-0.69463 -0.1095,-1.63199 0.3177,-2.08301 1.1107,-1.17254 3.2152,-0.10089 2.925,1.48951 -0.3231,1.77149 -2.659,2.19903 -3.2427,0.5935 z m -314.1952,-9.23496 c -0.2525,-0.69464 -0.1096,-1.632 0.3177,-2.08302 1.1107,-1.17254 3.2151,-0.10088 2.925,1.48952 -0.3232,1.77148 -2.6591,2.19902 -3.2427,0.5935 z m 292.4496,-5.51346 c -0.2884,-0.91323 -1.2322,-1.88469 -2.0973,-2.15882 l -1.5728,-0.49841 1.577,-0.81491 c 0.8673,-0.4482 1.7986,-1.55459 2.0696,-2.45866 0.4778,-1.59392 0.5082,-1.5855 1.0069,0.27796 0.2884,1.07796 1.0566,1.92269 1.7494,1.92395 1.7306,0.003 1.6197,1.48978 -0.1327,1.78111 -0.7966,0.13242 -1.5839,0.9936 -1.7589,1.92395 l -0.3167,1.68424 z m -268.5015,-9.68371 c -1.074,-1.36609 0.034,-3.11526 1.7529,-2.76592 1.6765,0.34084 1.8468,3.21803 0.2101,3.55077 -0.6382,0.12976 -1.5216,-0.22341 -1.963,-0.78485 z m 242.5668,-5.62528 c -0.7747,-0.98551 -0.7269,-1.41573 0.2753,-2.47365 1.1314,-1.19449 1.2947,-1.19449 2.4262,0 1.0021,1.05792 1.05,1.48814 0.2753,2.47365 -0.5159,0.65615 -1.1857,1.19299 -1.4884,1.19299 -0.3028,0 -0.9726,-0.53684 -1.4884,-1.19299 z m 37.1426,-0.0457 c -0.7261,-0.92359 -0.679,-1.38251 0.2412,-2.35405 1.3365,-1.41081 2.7411,-0.77172 2.7411,1.24713 0,1.86727 -1.8459,2.5524 -2.9823,1.10692 z m -253.8656,-6.20054 c -0.2673,-0.28217 -0.486,-1.14795 -0.486,-1.92395 0,-0.99191 0.5412,-1.4109 1.8225,-1.4109 2.0968,0 2.6106,2.5944 0.6693,3.38078 -1.4278,0.5784 -1.4141,0.57872 -2.0058,-0.0459 z m -39.6161,-2.25814 c -0.4614,-1.26926 1.0236,-2.77647 2.316,-2.35069 0.401,0.1321 0.8339,0.99225 0.962,1.91145 0.176,1.26302 -0.1412,1.67128 -1.2986,1.67128 -0.8424,0 -1.7331,-0.55443 -1.9794,-1.23204 z m 231.5838,-2.6159 c 0,-1.0105 -0.486,-1.53916 -1.415,-1.53916 -0.7782,0 -1.6177,-0.34631 -1.8655,-0.76958 -0.2555,-0.43648 0.3569,-0.76958 1.415,-0.76958 1.3795,0 1.8655,-0.40098 1.8655,-1.53916 0,-0.84654 0.328,-1.53916 0.729,-1.53916 0.4009,0 0.729,0.69262 0.729,1.53916 0,1.0261 0.486,1.53916 1.458,1.53916 0.8018,0 1.4579,0.34631 1.4579,0.76958 0,0.42327 -0.6561,0.76958 -1.4579,0.76958 -0.972,0 -1.458,0.51306 -1.458,1.53916 0,0.84654 -0.3281,1.53916 -0.729,1.53916 -0.401,0 -0.729,-0.69262 -0.729,-1.53916 z m 37.3322,-3.49219 c -0.7779,-0.93113 -0.6837,-1.41506 0.5468,-2.80937 1.2511,-1.41776 1.4865,-1.47871 1.4865,-0.38499 0,0.71472 0.554,1.29949 1.231,1.29949 1.0439,0 0.9932,0.23384 -0.334,1.53916 -1.8369,1.80655 -1.7291,1.79347 -2.9303,0.35571 z m -203.0311,-1.61174 c -0.2811,-0.29682 -0.5111,-1.19865 -0.5111,-2.00408 0,-1.07847 0.4323,-1.39961 1.6402,-1.2185 1.0723,0.16076 1.6402,0.77522 1.6402,1.77453 0,1.52655 -1.8022,2.46893 -2.7693,1.44805 z m -40.0068,-3.51089 c -0.1461,-1.06725 -0.9203,-1.8999 -2.0568,-2.21216 l -1.8225,-0.50075 2.0047,-0.85852 c 1.1026,-0.47219 2.0048,-1.38657 2.0048,-2.03194 0,-0.64538 0.328,-1.17342 0.7289,-1.17342 0.401,0 0.729,0.69262 0.729,1.53916 0,1.0261 0.4861,1.53916 1.458,1.53916 0.8019,0 1.458,0.34631 1.458,0.76958 0,0.42327 -0.6561,0.76958 -1.458,0.76958 -0.9572,0 -1.458,0.51306 -1.458,1.49374 0,2.14957 -1.3097,2.69846 -1.5881,0.66557 z m 177.5198,-1.05667 c -0.2411,-0.66335 -0.089,-1.57511 0.3384,-2.02613 1.134,-1.19705 3.0618,-0.14621 3.0618,1.66892 0,1.89795 -2.7356,2.18535 -3.4002,0.35721 z m -109.2216,-0.32051 c -0.2519,-0.43017 -0.2551,-1.12844 -0.01,-1.55171 0.2478,-0.42327 -0.2056,-0.76958 -1.0075,-0.76958 -2.0847,0 -2.6149,-1.38113 -0.6435,-1.67654 0.908,-0.13608 1.692,-0.6803 1.7421,-1.20939 0.05,-0.52908 0.1322,-1.32872 0.1823,-1.77697 0.1539,-1.37648 1.5491,0.0434 1.5491,1.57647 0,0.87958 0.6385,1.57281 1.6402,1.78084 l 1.6402,0.34061 -1.6402,0.57225 c -0.9021,0.31473 -1.6402,1.03088 -1.6402,1.59144 0,1.34869 -1.2354,2.11276 -1.8151,1.12258 z m 82.9154,-3.65316 c -1.3032,-0.47987 -1.1267,-3.03364 0.248,-3.59057 1.534,-0.62142 2.4857,0.0705 2.4857,1.8072 0,1.51285 -1.2514,2.32922 -2.7337,1.78337 z m -56.5067,-2.50328 c -1.2328,-1.52845 -1.2254,-1.66216 0.1822,-3.25717 1.2416,-1.40686 1.4679,-1.46295 1.4679,-0.36381 0,0.71472 0.4921,1.29949 1.0935,1.29949 0.6014,0 1.0935,0.34631 1.0935,0.76958 0,0.42327 -0.468,0.76958 -1.0401,0.76958 -0.5719,0 -1.146,0.53465 -1.2757,1.18811 -0.1932,0.97375 -0.4677,0.90055 -1.5213,-0.40578 z m 122.8654,0.66305 c -1.1199,-1.18228 -0.3408,-2.98454 1.2902,-2.98454 1.7914,0 2.4814,1.34731 1.3965,2.72724 -1.0585,1.34648 -1.6053,1.39885 -2.6867,0.2573 z m -94.7061,-1.82502 c -0.2525,-0.69464 -0.1096,-1.632 0.3177,-2.08302 1.1107,-1.17254 3.2151,-0.10089 2.925,1.48951 -0.3232,1.77149 -2.6591,2.19903 -3.2427,0.59351 z m -97.7056,-3.90479 c -0.241,-0.66335 -0.089,-1.57511 0.3384,-2.02613 1.134,-1.19705 3.0618,-0.14621 3.0618,1.66892 0,1.89795 -2.7356,2.18535 -3.4002,0.35721 z m 166.0119,-3.73683 c -1.1316,-1.43946 -0.4135,-2.75287 1.5051,-2.75287 1.0898,0 1.4059,0.42859 1.2327,1.67127 -0.2911,2.08845 -1.554,2.58737 -2.7378,1.0816 z m -139.0486,-3.98491 c -0.4614,-1.26926 1.0237,-2.77647 2.3161,-2.35068 0.4009,0.13209 0.8338,0.99224 0.962,1.91144 0.176,1.26302 -0.1412,1.67128 -1.2986,1.67128 -0.8424,0 -1.7332,-0.55442 -1.9795,-1.23204 z m 112.2115,-1.6179 c -1.1236,-0.43978 -1.2013,-3.02657 -0.1122,-3.73714 0.4393,-0.2867 1.3298,0.0392 1.9786,0.72417 1.0344,1.09195 1.0482,1.37631 0.1123,2.30752 -0.5871,0.58416 -1.4775,0.90161 -1.9787,0.70545 z m -157.5021,-2.96392 c -0.7872,-0.94162 -0.7557,-1.34418 0.1822,-2.33444 1.0254,-1.08242 1.2429,-1.08121 2.2791,0.0127 1.0183,1.07497 1.0241,1.33761 0.053,2.36371 -1.3154,1.38863 -1.3175,1.3886 -2.5134,-0.042 z m 218.5552,-0.34279 c 0,-1.12872 0.486,-1.53916 1.8224,-1.53916 1.3365,0 1.8225,0.41044 1.8225,1.53916 0,1.12872 -0.486,1.53916 -1.8225,1.53916 -1.3364,0 -1.8224,-0.41044 -1.8224,-1.53916 z m -145.5328,-0.37964 c -0.2525,-0.69464 -0.1096,-1.63199 0.3177,-2.08302 1.1107,-1.17254 3.2151,-0.10088 2.925,1.48952 -0.3232,1.77148 -2.6591,2.19902 -3.2427,0.5935 z m 28.0988,-1.62868 c -0.7261,-0.92359 -0.679,-1.38251 0.2412,-2.35405 1.3365,-1.41081 2.7411,-0.77172 2.7411,1.24713 0,1.86727 -1.8459,2.5524 -2.9823,1.10692 z m 28.045,0.12123 c -0.5129,-1.41131 0.2337,-2.73039 1.5455,-2.73039 1.3405,0 1.9297,1.11834 1.3824,2.62408 -0.5564,1.53075 -2.3859,1.59718 -2.9279,0.10631 z m 62.8354,-6.62403 c -1.2405,-1.32025 -1.2616,-1.49343 -0.1822,-1.49343 0.6716,0 1.2211,-0.51946 1.2211,-1.15437 0,-0.6349 0.328,-1.15437 0.729,-1.15437 0.4009,0 0.7289,0.51947 0.7289,1.15437 0,0.63491 0.554,1.15437 1.231,1.15437 1.0439,0 0.9932,0.23385 -0.334,1.53917 -1.8524,1.82186 -1.6361,1.82478 -3.3938,-0.0457 z m -165.6024,-0.24533 c -0.5901,-1.62318 0.2381,-2.78726 1.983,-2.78726 1.1013,0 1.4077,0.42851 1.2327,1.72369 -0.2719,2.01167 -2.5921,2.77908 -3.2157,1.06357 z m 139.483,-4.00934 c -0.2989,-0.31548 -0.5434,-1.20851 -0.5434,-1.98451 0,-0.89783 -0.5302,-1.41089 -1.458,-1.41089 -0.8019,0 -1.458,-0.34631 -1.458,-0.76958 0,-0.42327 0.6561,-0.76958 1.458,-0.76958 0.972,0 1.458,-0.51306 1.458,-1.53916 0,-0.84654 0.328,-1.53916 0.729,-1.53916 0.4009,0 0.729,0.69262 0.729,1.53916 0,1.12872 0.486,1.53916 1.8225,1.53916 2.2513,0 2.4208,1.34074 0.2121,1.67803 -0.98,0.14966 -1.7661,0.94742 -2.0081,2.03803 -0.2188,0.98567 -0.6423,1.53399 -0.9411,1.2185 z m -111.8186,-2.47148 c -0.6158,-1.04092 -0.5941,-1.70983 0.087,-2.69353 1.104,-1.59392 1.8392,-1.68125 1.8392,-0.21847 0,0.59962 0.4101,1.26491 0.9112,1.4784 0.729,0.31053 0.729,0.40031 0,0.44892 -0.5011,0.0334 -0.9112,0.58023 -0.9112,1.21513 0,1.5659 -0.9296,1.45469 -1.9265,-0.23045 z m 56.7282,-2.27069 -0.1274,-3.27071 h -3.2804 c -4.1638,0 -4.312,-1.37188 -0.1823,-1.68731 3.0778,-0.23509 3.1011,-0.25944 3.5355,-3.69976 l 0.4372,-3.46311 0.1095,3.65551 0.1095,3.6555 h 3.2805 c 1.8043,0 3.2805,0.34632 3.2805,0.76958 0,0.42327 -1.4574,0.76959 -3.2386,0.76959 h -3.2385 l -0.2791,3.27071 -0.279,3.27072 z m -29.4661,-1.92395 c -0.5428,-1.55829 0.2023,-2.88593 1.6198,-2.88593 1.6303,0 2.5953,2.34161 1.3177,3.19741 -1.3645,0.91401 -2.5546,0.78782 -2.9375,-0.31148 z m 56.0684,0.44892 c -0.8597,-0.90763 -0.5186,-2.60036 0.6168,-3.06031 1.4392,-0.58301 3.2969,1.06791 2.7854,2.47526 -0.4108,1.13006 -2.5392,1.49607 -3.4022,0.58505 z m -125.6902,-3.87604 c -1.5063,-0.58953 -1.0923,-3.30671 0.5037,-3.30671 0.7782,0 1.6372,0.37954 1.9087,0.84343 0.6265,1.07004 -1.202,2.93703 -2.4124,2.46328 z m 191.6664,-2.66793 c 0.3108,-2.31693 3.1565,-2.54591 3.1565,-0.25399 0,1.02611 -0.5662,1.62382 -1.6986,1.79315 -1.4134,0.21135 -1.6582,-0.0471 -1.4579,-1.53916 z m -25.7688,-4.66766 c -0.1511,-1.12411 -0.8167,-1.83029 -1.8746,-1.98889 -2.2042,-0.33049 -2.0986,-1.67804 0.1315,-1.67804 1.2559,0 1.8658,-0.50426 2.0945,-1.73155 l 0.3226,-1.73156 0.5421,1.73156 c 0.3069,0.9802 1.1378,1.73155 1.915,1.73155 0.7552,0 1.373,0.34632 1.373,0.76958 0,0.42327 -0.6561,0.76959 -1.458,0.76959 -0.9572,0 -1.458,0.51305 -1.458,1.49374 0,2.1673 -1.3115,2.6909 -1.5881,0.63402 z m -139.8362,-2.51255 c 0,-1.37466 0.394,-1.92396 1.38,-1.92396 1.4709,0 2.2546,1.30553 1.7324,2.88593 -0.1749,0.52909 -0.9467,0.96198 -1.7151,0.96198 -1.0044,0 -1.3973,-0.54094 -1.3973,-1.92395 z m 27.4266,-3.87958 c -0.6155,-1.6931 0.05,-2.66186 1.8268,-2.66186 1.1013,0 1.4078,0.4285 1.2327,1.72369 -0.279,2.06436 -2.4124,2.71854 -3.0595,0.93817 z m 83.9037,-0.57752 c -0.2138,-0.58825 -0.1241,-1.52149 0.1993,-2.07387 0.8177,-1.39683 3.0851,-0.31813 2.7853,1.32513 -0.3031,1.66135 -2.4564,2.20157 -2.9846,0.74874 z m -55.9269,-2.06829 c -0.9619,-0.64206 -0.9483,-0.88331 0.1122,-2.00323 1.4124,-1.49135 2.8037,-0.86456 2.8037,1.26302 0,1.61135 -1.1672,1.90763 -2.9159,0.74021 z m 27.9671,-0.39569 c -0.2525,-0.69464 -0.1095,-1.632 0.3177,-2.08302 1.1107,-1.17254 3.2152,-0.10088 2.925,1.48952 -0.3231,1.77148 -2.659,2.19902 -3.2427,0.5935 z m -101.1796,-6.29843 c -0.5503,-1.51409 1.2662,-3.7469 2.4303,-2.98733 1.1952,0.77975 0.963,3.27762 -0.3541,3.81121 -1.562,0.63277 -1.5441,0.6399 -2.0762,-0.82388 z m 166.4874,-2.98743 c -0.6761,-0.85998 -0.6761,-1.35728 0,-2.21726 1.1011,-1.40074 2.9519,-0.70568 2.9519,1.10863 0,1.81431 -1.8508,2.50937 -2.9519,1.10863 z m -138.4724,-2.64779 c 0,-1.02611 -0.486,-1.53916 -1.458,-1.53916 -0.8019,0 -1.458,-0.34631 -1.458,-0.76958 0,-0.42327 0.6561,-0.76958 1.458,-0.76958 0.972,0 1.458,-0.51306 1.458,-1.53916 0,-0.84654 0.328,-1.53917 0.729,-1.53917 0.4009,0 0.729,0.69263 0.729,1.53917 0,1.0261 0.486,1.53916 1.458,1.53916 0.8019,0 1.4579,0.34631 1.4579,0.76958 0,0.42327 -0.656,0.76958 -1.4579,0.76958 -0.972,0 -1.458,0.51305 -1.458,1.53916 0,0.84654 -0.3281,1.53916 -0.729,1.53916 -0.401,0 -0.729,-0.69262 -0.729,-1.53916 z m 111.0515,-3.51484 c -0.2411,-0.66336 -0.064,-1.60087 0.3926,-2.08337 1.026,-1.08314 3.4567,1.13013 2.6863,2.44604 -0.7276,1.24283 -2.5744,1.0253 -3.0789,-0.36267 z m -83.5928,-0.84612 c -0.7654,-0.80803 -0.5674,-3.19092 0.3129,-3.76528 0.4394,-0.2867 1.3134,0.0218 1.9422,0.68554 0.9417,0.99416 0.9778,1.41701 0.2052,2.3998 -1.0163,1.29276 -1.7007,1.4819 -2.4603,0.67994 z m 56.1729,-1.79562 c -1.1561,-1.43319 -1.1771,-1.73205 -0.1945,-2.7693 0.9825,-1.03726 1.2749,-0.9921 2.7091,0.41846 1.2894,1.2682 1.3746,1.58119 0.4302,1.58119 -0.6477,0 -1.2836,0.53465 -1.4132,1.18811 -0.1928,0.97151 -0.472,0.89523 -1.5316,-0.41846 z m -28.6918,-1.14929 c -0.2525,-0.69464 -0.1095,-1.63199 0.3177,-2.08301 1.1107,-1.17255 3.2152,-0.10089 2.925,1.48951 -0.3231,1.77148 -2.659,2.19902 -3.2427,0.5935 z m 6.2955,-42.88034 v -7.85927 l -3.6282,3.77257 c -1.9955,2.07492 -3.8625,3.52516 -4.149,3.22275 -0.2864,-0.3024 1.1822,-2.37028 3.2637,-4.59529 2.0815,-2.22499 3.7845,-4.43109 3.7845,-4.90245 0,-0.47134 -1.7002,-2.44618 -3.7782,-4.38852 -2.078,-1.94236 -3.5467,-3.77596 -3.2637,-4.07469 0.283,-0.29873 2.1472,1.15451 4.1427,3.22943 l 3.6282,3.77258 v -7.85927 c 0,-4.72647 0.2905,-7.85928 0.729,-7.85928 0.4384,0 0.7289,3.13281 0.7289,7.85928 v 7.85927 l 3.6282,-3.77258 c 1.9955,-2.07492 3.8625,-3.52515 4.149,-3.22275 0.2864,0.30241 -1.253,2.44598 -3.421,4.76348 l -3.9419,4.21366 3.9419,4.21365 c 4.8496,5.18402 4.4705,6.4715 -0.4414,1.49922 l -3.5503,-3.59382 -0.2077,7.79065 c -0.2738,10.26758 -1.6147,10.2106 -1.6147,-0.0686 z m -16.0378,-9.84108 c 0,-0.42327 1.4762,-0.76958 3.2804,-0.76958 1.8043,0 3.2805,0.34631 3.2805,0.76958 0,0.42327 -1.4762,0.76958 -3.2805,0.76958 -1.8042,0 -3.2804,-0.34631 -3.2804,-0.76958 z m 27.3371,0 c -0.2776,-0.47432 0.9644,-0.76958 3.2375,-0.76958 2.0283,0 3.6879,0.34631 3.6879,0.76958 0,0.42327 -1.4568,0.76958 -3.2374,0.76958 -1.7806,0 -3.4402,-0.34631 -3.688,-0.76958 z m -113.804,397.80686 c -0.075,-1.13005 -4.6911,-8.10669 -12.676,-19.15902 -12.1917,-16.87544 -39.553,-55.81615 -39.9122,-56.80329 -0.199,-0.54694 -0.6208,-0.89325 -0.9371,-0.76958 -0.3164,0.12375 -7.0544,9.4022 -14.9732,20.61884 -7.9189,11.21664 -20.0302,28.35904 -26.9141,38.09424 -6.8839,9.7352 -12.756,18.13548 -13.0492,18.66726 -0.4261,0.77327 10.3891,0.92734 54.0052,0.76958 49.2701,-0.17824 54.5301,-0.31522 54.4566,-1.41803 z m 200.7537,0.0162 c 0.1209,-0.66246 -0.6948,-2.46474 -1.8125,-4.00513 -1.1176,-1.54039 -3.6724,-5.14511 -5.6771,-8.01049 -2.0048,-2.86538 -4.0343,-5.7383 -4.5101,-6.38421 -0.4759,-0.64598 -10.5254,-14.85375 -22.3323,-31.57289 -11.8069,-16.71914 -22.8307,-32.30315 -24.4972,-34.63113 -9.0264,-12.60893 -20.2463,-28.43721 -21.8796,-30.86647 -1.0268,-1.52723 -4.3288,-6.20243 -7.3377,-10.38934 -3.009,-4.18691 -6.2895,-8.90887 -7.2899,-10.49323 -1.0006,-1.58437 -2.0346,-2.88304 -2.298,-2.88593 -0.4934,-0.005 -11.5495,15.09628 -11.5495,15.77573 0,0.20911 1.7849,0.38021 3.9664,0.38021 2.1815,0 4.1692,0.34631 4.417,0.76958 0.2839,0.48487 -1.425,0.76958 -4.6193,0.76958 h -5.0697 l -4.8445,6.73383 -4.8446,6.73383 9.5068,0.21474 c 13.0366,0.29445 12.4524,1.70921 -0.7058,1.70921 h -10.2126 l -4.7173,6.73383 -4.7173,6.73383 14.9298,0.20802 c 9.1272,0.12714 14.93,0.50107 14.93,0.96198 0,0.46882 -5.915,0.75395 -15.6393,0.75395 h -15.6392 l -1.3098,1.95405 c -0.7204,1.07472 -2.9004,4.10494 -4.8444,6.73383 l -3.5346,4.77979 20.2768,0.20486 c 12.0483,0.12175 20.5677,0.51208 20.9939,0.96197 0.4703,0.49646 -6.7082,0.75712 -20.8487,0.75712 h -21.5659 l -2.4544,3.48866 c -1.3498,1.91872 -3.5123,4.94894 -4.8053,6.73383 l -2.3509,3.24517 25.8609,0.20209 c 16.4048,0.12821 25.8609,0.47999 25.8609,0.96198 0,0.48622 -9.5524,0.75988 -26.5206,0.75988 h -26.5206 l -3.1811,4.42509 c -1.7496,2.4338 -3.9114,5.5506 -4.804,6.92623 l -1.623,2.50113 h 31.3246 c 20.3971,0 31.3247,0.26843 31.3247,0.76958 0,0.50138 -11.1371,0.76958 -31.9534,0.76958 h -31.9533 l -4.1744,5.82619 c -2.2959,3.20438 -4.3542,6.32118 -4.5742,6.92623 -0.3433,0.94466 4.7602,1.10004 36.1277,1.10004 23.8657,0 36.5276,0.26673 36.5276,0.76958 0,0.50307 -12.9838,0.76958 -37.4934,0.76958 h -37.4934 l -4.4236,6.46878 c -2.4329,3.55785 -4.4236,6.67465 -4.4236,6.92623 0,0.25158 19.0267,0.45744 42.2815,0.45744 27.7017,0 42.2815,0.26535 42.2815,0.76958 0,0.50438 -14.8924,0.76958 -43.2194,0.76958 h -43.2194 l -2.8792,4.0403 c -5.0774,7.12501 -6.2722,9.21788 -5.8791,10.29907 0.3241,0.89148 15.7225,1.02715 97.8989,0.86262 87.8072,-0.17577 97.5365,-0.31507 97.7342,-1.39956 z m 113.8874,1.19554 c 0,-0.36947 -21.5699,-31.07582 -44.7579,-63.71612 l -10.2809,-14.47189 -1.3166,1.77381 c -1.5904,2.14274 -7.0097,9.72935 -11.2886,15.80311 -1.7205,2.44234 -5.8292,8.24998 -9.1303,12.90594 -3.3011,4.65596 -6.5549,9.33117 -7.2305,10.38934 -0.6758,1.05817 -3.292,4.74931 -5.814,8.2025 -2.5221,3.45326 -5.0776,7.04205 -5.679,7.97524 -0.6015,0.93312 -1.9136,2.81336 -2.916,4.17828 -1.0024,1.36493 -2.4786,3.44549 -3.2805,4.62365 -0.8019,1.17807 -2.8817,4.01982 -4.622,6.31494 -1.8144,2.39301 -2.9902,4.65104 -2.7566,5.29387 0.3517,0.96767 7.837,1.12097 54.7402,1.12097 29.883,0 54.3327,-0.17715 54.3327,-0.39364 z m -374.8046,353.15169 -4.7742,-5.04 -3.8618,2.5086 c -3.2642,2.1203 -4.7364,2.562 -9.5118,2.8538 -4.8913,0.2989 -6.1741,0.09 -9.555,-1.5584 -12.649,-6.1661 -16.5448,-22.7426 -7.9682,-33.9053 0.9619,-1.252 0.6071,-1.8518 -3.9819,-6.7338 -2.7708,-2.9477 -4.7274,-5.3594 -4.348,-5.3594 0.3794,0 2.7537,2.1594 5.2763,4.7988 3.9264,4.1081 4.7686,4.6677 5.8516,3.8877 5.1326,-3.6963 7.1611,-4.3901 12.9288,-4.4218 6.8905,-0.038 10.1015,1.2666 14.8223,6.0216 4.9192,4.955 6.2428,8.2414 6.2401,15.4946 0,6.0269 -1.0773,9.7848 -4.1252,14.4184 -0.7562,1.1497 -0.2263,2.03 3.8088,6.328 2.5779,2.7458 4.5263,5.1623 4.3297,5.3698 -0.1966,0.2076 -2.5058,-1.8906 -5.1315,-4.6626 z m -11.4768,-2.7104 c 6.4402,-2.9247 6.718,-2.3104 -8.1496,-18.023 -7.3836,-7.8033 -13.6695,-14.1878 -13.9686,-14.1878 -1.1018,0 -4.0806,5.8887 -4.9101,9.7068 -1.5782,7.2641 1.8136,16.1726 7.8346,20.5775 6.0421,4.4203 12.3159,5.05 19.1937,1.9265 z m 9.5854,-9.4567 c 2.0833,-4.2233 2.2163,-13.3898 0.2551,-17.5789 -2.2832,-4.8769 -7.4912,-9.6741 -12.0071,-11.0601 -6.2368,-1.914 -13.5667,-0.5009 -17.815,3.4346 -1.2299,1.1393 -0.4884,2.0786 12.3551,15.6513 14.9305,15.7783 14.3108,15.4343 17.2119,9.5531 z m 333.4033,3.7707 c -3.1613,-1.2508 -6.6935,-4.7735 -7.7625,-7.7417 -0.3867,-1.0739 -0.7032,-3.5278 -0.7032,-5.4532 0,-11.2364 12.87,-17.4767 20.8291,-10.0994 3.5171,3.26 4.6899,5.9713 4.6614,10.7761 -0.054,9.0494 -9.058,15.6702 -17.0248,12.5182 z m 11.0357,-3.1879 c 5.074,-3.9998 6.1734,-11.5131 2.4734,-16.905 -3.9374,-5.7382 -12.3978,-6.498 -17.0781,-1.5338 -5.1471,5.4595 -5.0472,12.2241 0.2595,17.5587 4.1232,4.1448 9.7645,4.4909 14.3452,0.8801 z m 41.3788,2.7242 c -3.4979,-0.8626 -7.3303,-4.5773 -8.4642,-8.2042 -2.7867,-8.914 3.501,-17.5249 12.3123,-16.8613 8.4786,0.6388 13.4251,9.3073 10.102,17.7034 -1.1841,2.9914 -5.8164,7.4667 -7.7288,7.4667 -0.7552,0 -1.8099,0.1378 -2.3439,0.3061 -0.5339,0.1684 -2.2788,-0.016 -3.8774,-0.4107 z m -455.3205,-8.3016 c -2.6042,-2.7492 -2.7144,-5.3264 -0.3432,-8.0274 2.6405,-3.0078 6.4149,-3.0193 8.9649,-0.027 3.5118,4.1206 0.5046,10.3042 -5.0111,10.3042 -0.8138,0 -2.4386,-1.0123 -3.6106,-2.2496 z m -26.4977,-1.5349 c -1.7113,-1.9962 -1.1983,-4.7693 1.1373,-6.1486 1.7211,-1.0164 2.1189,-0.9972 3.8272,0.1844 2.2494,1.5559 2.5064,4.3195 0.5734,6.1663 -1.7709,1.6918 -3.9836,1.611 -5.5379,-0.2021 z m 104.5558,-726.29684 v -5.13643 l -1.8196,1.80461 c -2.291,2.27214 -3.2509,1.49507 -1.1219,-0.90824 l 1.579,-1.78244 -3.6927,-0.23261 c -4.8469,-0.30533 -4.7819,-1.69134 0.079,-1.69134 h 3.772 l -1.7094,-1.92092 c -2.2268,-2.50229 -1.2767,-3.50534 1.0936,-1.15456 l 1.8196,1.80462 v -5.13643 c 0,-2.91123 0.3158,-5.13642 0.729,-5.13642 0.4132,0 0.729,2.22519 0.729,5.13642 v 5.13643 l 1.8196,-1.80462 c 2.3704,-2.35078 3.3205,-1.34773 1.0937,1.15456 l -1.7094,1.92092 h 3.815 c 2.3577,0 3.643,0.29397 3.3645,0.76958 -0.2478,0.42327 -1.9645,0.76958 -3.815,0.76958 h -3.3645 l 1.7094,1.92092 c 2.2268,2.50229 1.2767,3.50534 -1.0937,1.15455 l -1.8196,-1.80461 v 5.13643 c 0,2.91122 -0.3158,5.13642 -0.729,5.13642 -0.4132,0 -0.729,-2.2252 -0.729,-5.13642 z m 312.6833,4.60465 c -0.03,-0.34243 -0.056,-2.61389 -0.06,-5.04769 -0.01,-4.78714 -0.4048,-5.25775 -2.4421,-2.88121 -0.7279,0.84913 -1.4908,1.36724 -1.6953,1.15134 -0.2046,-0.2159 0.3974,-1.25696 1.3376,-2.31346 l 1.7097,-1.92092 h -3.729 c -2.0509,0 -3.9317,-0.34631 -4.1795,-0.76958 -0.2777,-0.47432 0.9644,-0.76958 3.2374,-0.76958 4.0048,0 4.3129,-0.3042 2.4775,-2.44526 -1.5758,-1.83817 -0.66,-2.80492 1.0812,-1.1414 1.9547,1.86748 2.151,1.65339 2.1796,-2.37759 0.039,-5.4797 0.077,-5.70913 0.8657,-5.19467 0.4009,0.26159 0.729,2.59342 0.729,5.18184 v 4.70622 l 1.8196,-1.80462 c 1.0008,-0.99253 1.9869,-1.62796 2.1914,-1.41206 0.2045,0.2159 -0.2863,1.02128 -1.0906,1.78973 -2.2439,2.1437 -1.7867,2.69781 2.2255,2.69781 2.2731,0 3.5151,0.29526 3.2375,0.76958 -0.2478,0.42327 -1.9646,0.76958 -3.8151,0.76958 h -3.3645 l 1.7094,1.92092 c 2.2268,2.50229 1.2767,3.50534 -1.0936,1.15455 l -1.8196,-1.80461 v 4.70622 c 0,2.58841 -0.3281,4.92024 -0.729,5.18184 -0.401,0.26159 -0.7533,0.19546 -0.783,-0.14698 z"
       id="path1" />
  </g>
</svg>
