<?xml version="1.0" encoding="utf-8"?>
<!-- Generator: Adobe Illustrator 27.5.0, SVG Export Plug-In . SVG Version: 6.00 Build 0)  -->
<svg version="1.1" xmlns="http://www.w3.org/2000/svg" xmlns:xlink="http://www.w3.org/1999/xlink" x="0px" y="0px"
	 viewBox="0 0 3440 1440" style="enable-background:new 0 0 3440 1440;" xml:space="preserve">
<g id="BACKGROUND">
  <linearGradient id="SVGID_1_" gradientUnits="userSpaceOnUse" x1="1720" y1="1440" x2="1720" y2="0">
    <stop  offset="0" style="stop-color:{{ colors.foreground }}"/>
    <stop  offset="0.1716" style="stop-color:{{ theme.secondary | between(colors.foreground, 4, 5) }}"/>
    <stop  offset="0.7403" style="stop-color:{{ theme.secondary | between(colors.foreground, 1, 5) }}"/>
    <stop  offset="1" style="stop-color:{{ theme.secondary }}"/>
  </linearGradient>
  <rect style="fill:url(#SVGID_1_);" width="3440" height="1440"/>
</g>
<g id="OBJECTS" transform="scale(4.58666667, 2.88)">
	<g>
    <defs>
        <rect id="SVGID_00000047038822733062798590000005676846355597438655_" width="3440" height="1440"/>
    </defs>
		<clipPath id="SVGID_00000114794801222168057090000006694075009704612742_">
			<use xlink:href="#SVGID_00000047038822733062798590000005676846355597438655_"  style="overflow:visible;"/>
		</clipPath>
		<polygon style="clip-path:url(#SVGID_00000114794801222168057090000006694075009704612742_);fill:{{ theme.primary | between(colors.background, 8, 10) }};" points="
			25.002,346.667 32.754,313.511 37.755,346.667 		"/>
		<polygon style="clip-path:url(#SVGID_00000114794801222168057090000006694075009704612742_);fill:{{ theme.primary | between(colors.background, 8, 10) }};" points="
			5.202,353.111 15.203,310.333 21.655,353.111 		"/>
		<polygon style="clip-path:url(#SVGID_00000114794801222168057090000006694075009704612742_);fill:{{ theme.primary | between(colors.background, 8, 10) }};" points="
			16.638,358.621 24.389,325.465 29.39,358.621 		"/>
		<polygon style="clip-path:url(#SVGID_00000114794801222168057090000006694075009704612742_);fill:{{ theme.primary | between(colors.background, 8, 10) }};" points="
			33.007,355.885 40.758,322.729 45.759,355.885 		"/>
		<polygon style="clip-path:url(#SVGID_00000114794801222168057090000006694075009704612742_);fill:{{ theme.primary | between(colors.background, 8, 10) }};" points="
			40.935,351.43 48.686,318.274 53.687,351.43 		"/>
		<polygon style="clip-path:url(#SVGID_00000114794801222168057090000006694075009704612742_);fill:{{ theme.primary | between(colors.background, 8, 10) }};" points="
			47.777,340.961 55.529,307.805 60.53,340.961 		"/>
		<polygon style="clip-path:url(#SVGID_00000114794801222168057090000006694075009704612742_);fill:{{ theme.primary | between(colors.background, 8, 10) }};" points="
			55.661,329.089 63.412,295.933 68.413,329.089 		"/>
		<path style="opacity:0.2;clip-path:url(#SVGID_00000114794801222168057090000006694075009704612742_);fill:{{ colors.foreground }};" d="
			M220.383,25.869c10.992,1.631,22.248,3.599,31.764,9.338c9.515,5.739,17.024,16.124,16.198,27.206
			c-1.734,23.273-36.603,35.774-33.651,58.924c1.414,11.089,12.039,19.229,23.032,21.257c10.993,2.027,22.259-0.767,32.979-3.936
			c84.966-25.118,160.386-74.304,239.68-113.834C609.678-14.706,698.888-46.16,786.002-30v211.002
			c-51.273-29.145-111.674-37.093-170.652-37.283c-47.245-0.152-95.408,3.923-139.075,21.961
			c-21.882,9.039-42.214,21.413-63.582,31.611c-63.565,30.335-135.293,40.768-205.696,38.762
			c-22.218-0.633-45.282-2.727-64.463-13.958c-19.181-11.231-33.27-34.007-27.831-55.558c4.228-16.753,18.536-28.641,29.204-42.233
			c10.668-13.592,17.658-34.101,6.597-47.375c-6.132-7.358-16.058-10.145-25.415-12.189C68.267,52.328,8.609,53.099-47.872,66.976
			c-3.144,0.772-6.636,1.546-9.477-0.007c-2.553-1.396-3.849-4.303-4.715-7.081C-71.749,28.819-45.62,30.887-22.165,27.16
			c26.984-4.288,54.188-7.186,81.469-8.688C113.063,15.509,167.124,17.964,220.383,25.869z"/>
		<g style="clip-path:url(#SVGID_00000114794801222168057090000006694075009704612742_);">
			<g>
				<polygon style="fill:{{ theme.primary | between(colors.background, 8, 10) }};" points="471.905,283.056 515.822,238.17 552.81,246.781 595.044,193.5 651.016,268.417
					651.016,378.639 471.044,378.639 				"/>
				<polygon style="fill:{{ theme.primary | between(colors.background, 6, 10) }};" points="595.044,193.5 588.155,218.472 600.211,223.639 576.099,255.5 582.988,268.417
					576.099,313.194 539.098,353.667 465.016,298.125 484.822,268.417 515.822,238.17 552.81,246.781 				"/>
			</g>
			<polygon style="fill:{{ theme.primary | between(colors.background, 7, 10) }};" points="484.822,268.417 515.822,238.17 536.591,243.005 525.294,253.293 546.822,255.5
				532.613,273.583 542.516,294.25 508.933,320.944 471.044,289.083 			"/>
		</g>
		<g style="clip-path:url(#SVGID_00000114794801222168057090000006694075009704612742_);">
			<polygon style="fill:{{ theme.primary | between(colors.background, 8, 10) }};" points="-10.998,364 24.037,340 44.002,340 103.002,275 160.002,239.875 192.002,199
				286.438,286.403 286.438,477 -10.998,477 			"/>
			<polygon style="fill:{{ theme.primary | between(colors.background, 6, 10) }};" points="192.002,199 199.002,252 192.002,275 209.002,275 179.002,326 171.002,350 159.002,473
				-10.998,473 -10.998,364 24.037,340 44.002,340 103.002,275 160.002,239.875 			"/>
			<polygon style="fill:{{ theme.primary | between(colors.background, 7, 10) }};" points="-10.998,403 24.037,377 45.002,384 99.002,326 113.002,336 137.72,317 114.002,370
				108.002,355 92.002,395 75.002,403 40.002,460.083 -10.998,482 			"/>
			<polygon style="fill:{{ colors.foreground }};" points="192.002,199 160.002,239.875 127.002,260.21 152.002,260.21 137.72,271 159.502,271
				166.002,281 159.502,300 180.669,288.833 186.502,303.333 199.521,291.119 209.002,275 192.002,275 199.002,252 			"/>
		</g>
		<g style="clip-path:url(#SVGID_00000114794801222168057090000006694075009704612742_);">
			<polygon style="fill:{{ theme.primary | between(colors.background, 8, 10) }};" points="183.002,359 345.002,184 380,135 451.002,210 462.002,239.875 485.002,247 485.002,265
				508.002,265 508.002,282 535.002,289 547.002,331 599.002,346 642.002,373 678.002,415 133.002,415 146.002,376 			"/>
			<polygon style="fill:{{ theme.primary | between(colors.background, 8, 10) }};" points="235.002,415 267.002,399 300.002,389 330.002,389 358.002,369 374.002,377 394.002,364
				435.002,389.5 435.002,376 476.002,395 476.002,386 518.002,400 505.002,406 532.002,415 			"/>
			<polygon style="fill:{{ theme.primary | between(colors.background, 6, 10) }};" points="380,135 345.002,184 183.002,359 146.002,376 133.002,415 235.002,415 267.002,399
				300.002,389 330.002,389 358.002,369 374.002,377 394.002,364 399.002,350 383.502,351 399.002,318 380,325 393.002,287
				399.002,293 405.502,260 419.002,265 389.002,232 365.002,244 383.502,198 398.002,185 394.002,160 380,154 			"/>
			<polygon style="fill:{{ colors.foreground }};" points="380,135 345.002,184 305.197,227 305.197,245 319.002,231 322.002,239.875 342.598,217
				347.002,232 342.598,252 366.002,218 371.723,227.29 383.502,198 398.002,185 394.002,160 380,154 			"/>
			<polygon style="fill:{{ theme.primary | between(colors.background, 7, 10) }};" points="255.002,345 276.002,319 265.502,309 297.002,275 297.002,290 321.002,265 321.002,275
				326.002,288 345.002,275 345.002,292 322.002,319 300.002,320 288.002,333 276.002,329 			"/>
			<polygon style="fill:{{ theme.primary | between(colors.background, 8, 10) }};" points="380,135 380,154 394.002,160 398.002,185 383.502,198 405.502,222 411.002,213
				432.002,239.875 446.002,226 462.002,239.875 451.002,210 			"/>
			<polygon style="fill:{{ theme.primary | between(colors.background, 8, 10) }};" points="678.002,415 642.002,373 599.002,346 547.002,331 535.002,289 508.002,282 508.002,265
				485.002,265 496.002,300 523.002,305 551.002,371 607.002,374 			"/>
			<polygon style="fill:{{ theme.primary | between(colors.background, 7, 10) }};" points="103.002,428 146.002,376 183.002,359 219.002,340 227.002,345 246.002,326 235.002,364
				246.002,374 235.002,396 246.002,399 235.002,415 			"/>
		</g>
		<polygon style="clip-path:url(#SVGID_00000114794801222168057090000006694075009704612742_);fill:{{ theme.primary | between(colors.background, 9, 10) }};" points="
			23.002,461.354 41.238,383.354 53.002,461.354 		"/>
		<polygon style="clip-path:url(#SVGID_00000114794801222168057090000006694075009704612742_);fill:{{ theme.primary | between(colors.background, 9, 10) }};" points="
			462.121,395.472 476.836,332.528 486.33,395.472 		"/>
		<polygon style="clip-path:url(#SVGID_00000114794801222168057090000006694075009704612742_);fill:{{ theme.primary | between(colors.background, 9, 10) }};" points="
			477.198,390.903 496.323,309.097 508.662,390.903 		"/>
		<polygon style="clip-path:url(#SVGID_00000114794801222168057090000006694075009704612742_);fill:{{ theme.primary | between(colors.background, 9, 10) }};" points="
			440.807,395.472 455.522,332.528 465.016,395.472 		"/>
		<polygon style="clip-path:url(#SVGID_00000114794801222168057090000006694075009704612742_);fill:{{ theme.primary | between(colors.background, 9, 10) }};" points="45.002,454
			63.238,376 75.002,454 		"/>
		<polygon style="clip-path:url(#SVGID_00000114794801222168057090000006694075009704612742_);fill:{{ theme.primary | between(colors.background, 9, 10) }};" points="60.002,473
			78.238,395 90.002,473 		"/>
		<polygon style="clip-path:url(#SVGID_00000114794801222168057090000006694075009704612742_);fill:{{ theme.primary | between(colors.background, 9, 10) }};" points="
			429.356,400.15 440.24,353.596 447.262,400.15 		"/>
		<polygon style="clip-path:url(#SVGID_00000114794801222168057090000006694075009704612742_);fill:{{ theme.primary | between(colors.background, 9, 10) }};" points="
			499.709,382.554 510.593,336 517.615,382.554 		"/>
		<polygon style="clip-path:url(#SVGID_00000114794801222168057090000006694075009704612742_);fill:{{ theme.primary | between(colors.background, 9, 10) }};" points="99.002,454
			117.238,376 129.002,454 		"/>
		<polygon style="clip-path:url(#SVGID_00000114794801222168057090000006694075009704612742_);fill:{{ theme.primary | between(colors.background, 9, 10) }};" points="3.92,500.354
			22.155,422.354 33.92,500.354 		"/>
		<polygon style="clip-path:url(#SVGID_00000114794801222168057090000006694075009704612742_);fill:{{ theme.primary | between(colors.background, 9, 10) }};" points="75.002,442
			93.238,364 105.002,442 		"/>
		<g style="clip-path:url(#SVGID_00000114794801222168057090000006694075009704612742_);">
			<polygon style="fill:{{ theme.primary | between(colors.background, 9, 10) }};" points="0,467 128.002,405 366.002,350 462.002,391 516.002,354 576.502,316 750,87 777.002,87
				777.002,512 0,512 			"/>
			<polygon style="fill:{{ colors.background }};" points="735.268,106.444 678.002,235 706.635,239.875 694.002,252 728.002,260 678.002,345
				700.002,345 640.002,461 662.002,467.083 605.002,513 768.002,506 768.002,87 750,87 			"/>
			<polygon style="fill:{{ colors.background }};" points="366.002,350 351.599,373.573 336.002,369 328.002,377 321.002,397 310.002,389.5
				290.002,428 345.002,415 388.501,428 411.002,409 428.002,417 428.002,406 485.002,422 469.002,389.5 			"/>
			<polygon style="fill:{{ colors.background }};" points="576.502,316 501.408,364 556.002,355 558.002,384 609.002,299.5 625.002,310 626.506,250
							"/>
			<polygon style="fill:{{ colors.background }};" points="0,467 92.174,422.354 127.002,444.677 110.002,460.083 75.002,467 90.002,485 63.501,506
				-18.998,512 -18.998,467.177 			"/>
		</g>
		<path style="opacity:0.2;clip-path:url(#SVGID_00000114794801222168057090000006694075009704612742_);fill:{{ colors.foreground }};" d="
			M530.271-9.426c-38.584-7.665-77.9,7.576-112.837,25.656c-34.937,18.08-69.218,39.663-108.025,46.107
			c-59.727,9.919-118.497-17.427-177.891-29.178C73.456,21.672,13.607,25.141-45.476,28.657c-7.199,0.428-14.868,1.024-20.606,5.392
			c-10.659,8.114-9.345,24.247-6.972,37.431c25.168-3.997,51.154-2.763,75.829,3.601c7.874,2.031,15.948,4.778,21.616,10.608
			c6.413,6.596,8.765,16.186,9.192,25.377c0.77,16.575-3.832,32.913-4.872,49.473c-1.04,16.56,2.468,35.001,15.548,45.209
			c7.966,6.217,18.272,8.431,28.24,10.096c111.129,18.562,225.243-9.669,329.445-52.518c40.279-16.563,80.042-35.451,122.691-44.272
			c37.438-7.743,76.051-7.492,114.238-5.672c43.93,2.094,88.732,6.138,131.282-4.985c9.412-2.46,18.841-5.761,26.431-11.846
			c14.08-11.287,19.477-29.95,24.105-47.393c2.379-8.966,4.779-18.181,3.779-27.403c-1.609-14.847-11.811-27.424-23.359-36.894
			c-29.309-24.035-68.627-33.094-106.527-32.481c-37.899,0.613-75.032,10.067-111.753,19.463
			c-22.988,5.882-45.976,11.764-68.964,17.647"/>
		<path style="opacity:0.2;clip-path:url(#SVGID_00000114794801222168057090000006694075009704612742_);fill:{{ colors.foreground }};" d="
			M210.427,16.366c-12.215,13.36-20.573,39.148-6.8,54.262c17.893,19.633,66.656,11.008,89.719,9.52
			C367.208,75.383,445.637,55.6,504.605,8.837c32.348-25.653,58.414-59.133,84.814-90.58c-56.887-6.4-113.172,7.915-167.76,22.255
			c-47.202,12.4-96.798,19.717-142.965,35.632C259.675-17.299,228.606-3.516,210.427,16.366z"/>
	</g>
</g>
</svg>
